<svg xmlns="http://www.w3.org/2000/svg" xmlns:xlink="http://www.w3.org/1999/xlink" viewBox="0 0 81.2 81.2"><defs><style>.cls-1{isolation:isolate;}.cls-2{fill:#a01210;}.cls-3{fill:#bc1512;}.cls-4{fill:#6c0c0b;}.cls-5{fill:#9f120f;}.cls-6{fill:#a21210;}.cls-7{fill:#ba1512;}.cls-8{fill:url(#Degradado_sin_nombre_12);}</style><linearGradient id="Degradado_sin_nombre_12" x1="40.09" y1="52.36" x2="40.09" y2="32.33" gradientUnits="userSpaceOnUse"><stop offset="0" stop-color="#250403"/><stop offset="0.34" stop-color="#2e0504"/><stop offset="0.63" stop-color="#97110e"/><stop offset="0.83" stop-color="#d81815"/><stop offset="0.97" stop-color="#f21817"/></linearGradient></defs><title>1_1</title><g id="_1" data-name="1"><g class="cls-1"><polygon class="cls-2" points="29.76 41.4 25.63 39.15 37.47 22.07 41.6 24.33 29.76 41.4"/><polygon class="cls-3" points="35.47 58.97 31.34 56.72 25.63 39.15 29.76 41.4 35.47 58.97"/><polygon class="cls-4" points="41.6 24.33 37.47 22.07 55.01 22.57 59.14 24.82 41.6 24.33"/><polygon class="cls-4" points="35.36 59.12 31.23 56.87 48.93 57.36 53.06 59.62 35.36 59.12"/><polygon class="cls-3" points="65 42.39 60.87 40.14 55.12 22.41 59.25 24.67 65 42.39"/><polygon class="cls-2" points="53.06 59.62 48.93 57.36 60.87 40.14 65 42.39 53.06 59.62"/><path class="cls-5" d="M48.93,57.36l-17.7-.49L25.48,39.14,37.42,21.92l17.69.49,5.76,17.73ZM55,22.57l-17.54-.5L25.63,39.15l5.71,17.57,17.54.49L60.71,40.13,55,22.57"/></g><g class="cls-1"><polygon class="cls-6" points="20.6 41.23 16.47 38.98 27.89 21.69 32.02 23.95 20.6 41.23"/><polygon class="cls-7" points="27.33 58.89 23.2 56.63 16.47 38.98 20.6 41.23 27.33 58.89"/><polygon class="cls-4" points="32.02 23.95 27.89 21.69 46.04 22.06 50.17 24.32 32.02 23.95"/><polygon class="cls-4" points="27.23 59.04 23.1 56.79 41.41 57.16 45.54 59.42 27.23 59.04"/><polygon class="cls-7" points="57.06 41.97 52.93 39.72 46.14 21.91 50.27 24.16 57.06 41.97"/><polygon class="cls-6" points="45.54 59.42 41.41 57.16 52.93 39.72 57.06 41.97 45.54 59.42"/><path class="cls-5" d="M41.41,57.16,23.1,56.79,16.31,39,27.84,21.54l18.3.37,6.79,17.81ZM46,22.06l-18.15-.37L16.47,39,23.2,56.64,41.36,57,52.77,39.72,46,22.06"/></g><path class="cls-8" d="M45.31,37.91h-1a9.38,9.38,0,0,0-.8-2.54,3.09,3.09,0,0,0-1.36-1.26,4.6,4.6,0,0,0-2-.45,3.63,3.63,0,0,0-2.57.89,2.85,2.85,0,0,0-1,2.17,2.81,2.81,0,0,0,.78,2,12.56,12.56,0,0,0,3.77,2.12,10.48,10.48,0,0,1,4.09,2.65,5,5,0,0,1,1.06,3.11,5.38,5.38,0,0,1-.8,2.87A5.64,5.64,0,0,1,43,51.56a7.77,7.77,0,0,1-3.48.8A13,13,0,0,1,37,52.11a23.22,23.22,0,0,1-3.07-.84c.13-1.27.2-3,.2-5.06h1a10.63,10.63,0,0,0,.93,2.84,3.64,3.64,0,0,0,1.45,1.34A4.74,4.74,0,0,0,42.48,50a2.93,2.93,0,0,0,1.2-2.5,3.46,3.46,0,0,0-.87-2.33A11.27,11.27,0,0,0,39,42.91a11.32,11.32,0,0,1-3.92-2.43,4.09,4.09,0,0,1-1-2.75,4.92,4.92,0,0,1,.8-2.66,5.54,5.54,0,0,1,2.35-2,7.47,7.47,0,0,1,3.22-.74,15.69,15.69,0,0,1,4.85,1c-.05,1.32-.07,2.11-.07,2.38C45.24,36.23,45.26,37,45.31,37.91Z"/></g></svg>